<svg width="16" height="16" viewBox="0 0 16 16" fill="currentColor"
  xmlns="http://www.w3.org/2000/svg">
  <path fill-rule="evenodd" clip-rule="evenodd" d="M15.84 14.7201L14.7201 15.84L11.3597 12.4803L12.4795 11.3597L15.84 14.7201ZM6.336 11.088C3.71606 11.088 1.584 8.95673 1.584 6.336C1.584 3.71606 3.71606 1.584 6.336 1.584C8.95594 1.584 11.088 3.71606 11.088 6.336C11.088 8.95673 8.95594 11.088 6.336 11.088ZM6.336 0C2.83694 0 0 2.83694 0 6.336C0 9.83506 2.83694 12.672 6.336 12.672C9.83506 12.672 12.672 9.83506 12.672 6.336C12.672 2.83694 9.83506 0 6.336 0Z" />
</svg>
